<?xml version="1.0" encoding="utf-8"?>
<!-- Generator: Adobe Illustrator 15.1.0, SVG Export Plug-In . SVG Version: 6.00 Build 0)  -->
<!DOCTYPE svg PUBLIC "-//W3C//DTD SVG 1.1//EN" "http://www.w3.org/Graphics/SVG/1.1/DTD/svg11.dtd">
<svg version="1.1" id="Layer_1" xmlns="http://www.w3.org/2000/svg" xmlns:xlink="http://www.w3.org/1999/xlink" x="0px" y="0px"
	 width="100.592px" height="100.592px" viewBox="0 0 100.592 100.592" enable-background="new 0 0 100.592 100.592"
	 xml:space="preserve">
<g>
	<path fill-rule="evenodd" clip-rule="evenodd" fill="#FFFFFF" d="M50.296-0.061c-27.742,0-50.237,22.541-50.237,50.348
		c0,22.246,14.394,41.119,34.355,47.776c2.51,0.465,3.432-1.093,3.432-2.423c0-1.199-0.046-5.166-0.068-9.374
		c-13.976,3.047-16.923-5.94-16.923-5.94c-2.287-5.818-5.579-7.366-5.579-7.366c-4.559-3.126,0.343-3.06,0.343-3.06
		c5.045,0.354,7.7,5.188,7.7,5.188c4.481,7.697,11.755,5.472,14.619,4.186c0.452-3.255,1.754-5.476,3.191-6.734
		c-11.159-1.271-22.89-5.589-22.89-24.882c0-5.497,1.964-9.988,5.177-13.514c-0.521-1.269-2.241-6.389,0.486-13.324
		c0,0,4.219-1.353,13.817,5.162c4.01-1.115,8.307-1.676,12.576-1.695c4.27,0.02,8.569,0.58,12.585,1.695
		c9.589-6.515,13.802-5.162,13.802-5.162c2.734,6.936,1.016,12.056,0.493,13.324c3.221,3.525,5.17,8.017,5.17,13.514
		c0,19.339-11.754,23.596-22.94,24.843c1.804,1.563,3.409,4.626,3.409,9.323c0,6.737-0.058,12.158-0.058,13.817
		c0,1.34,0.903,2.91,3.448,2.415c19.953-6.663,34.328-25.53,34.328-47.769C100.533,22.48,78.041-0.061,50.296-0.061z"/>
	<path fill="#FFFFFF" d="M19.087,72.229c-0.11,0.251-0.504,0.326-0.86,0.153c-0.366-0.165-0.57-0.506-0.452-0.756
		c0.108-0.258,0.502-0.328,0.865-0.156C19.005,71.633,19.212,71.978,19.087,72.229L19.087,72.229z M18.468,71.77"/>
	<path fill="#FFFFFF" d="M21.122,74.504c-0.24,0.223-0.709,0.119-1.025-0.233c-0.329-0.351-0.392-0.821-0.148-1.046
		c0.248-0.224,0.701-0.118,1.03,0.232C21.308,73.812,21.37,74.278,21.122,74.504L21.122,74.504z M20.642,73.987"/>
	<path fill="#FFFFFF" d="M23.102,77.402c-0.308,0.215-0.812,0.014-1.122-0.435c-0.309-0.446-0.309-0.984,0.006-1.198
		c0.312-0.216,0.809-0.021,1.123,0.421C23.416,76.646,23.416,77.184,23.102,77.402L23.102,77.402z M23.102,77.402"/>
	<path fill="#FFFFFF" d="M25.815,80.204c-0.276,0.305-0.862,0.222-1.291-0.192c-0.44-0.406-0.562-0.983-0.286-1.288
		c0.279-0.304,0.87-0.218,1.301,0.194C25.977,79.324,26.108,79.904,25.815,80.204L25.815,80.204z M25.815,80.204"/>
	<path fill="#FFFFFF" d="M29.559,81.831c-0.122,0.395-0.685,0.573-1.255,0.405c-0.568-0.172-0.939-0.633-0.825-1.032
		c0.118-0.396,0.685-0.583,1.258-0.404C29.305,80.972,29.678,81.431,29.559,81.831L29.559,81.831z M29.559,81.831"/>
	<path fill="#FFFFFF" d="M33.671,82.134c0.014,0.413-0.469,0.759-1.065,0.767c-0.602,0.014-1.088-0.323-1.095-0.731
		c0-0.421,0.473-0.76,1.073-0.77C33.182,81.388,33.671,81.72,33.671,82.134L33.671,82.134z M33.671,82.134"/>
	<path fill="#FFFFFF" d="M37.496,81.481c0.071,0.402-0.344,0.819-0.937,0.93c-0.582,0.107-1.122-0.142-1.197-0.544
		c-0.072-0.415,0.352-0.831,0.934-0.938C36.888,80.825,37.421,81.068,37.496,81.481L37.496,81.481z M37.496,81.481"/>
</g>
<rect x="0.059" y="86.753" fill-rule="evenodd" clip-rule="evenodd" fill="none" width="100.475" height="13.839"/>
</svg>
